<svg width="1440" height="860" viewBox="0 0 1440 860" fill="none" xmlns="http://www.w3.org/2000/svg">
<g clip-path="url(#clip0_504_7128)">
<g clip-path="url(#clip1_504_7128)">
<path d="M719.849 -10.5508H-101.932V306.521C38.6783 490.105 245.252 484.604 245.252 484.604C367.962 485.826 413.138 557.426 413.138 557.426C467.354 637.133 505.416 680.972 521.539 698.379C523.811 701.428 526.685 704.393 530.077 707.266C530.131 707.32 530.169 707.35 530.169 707.35H530.184C560.616 732.995 634.065 751.074 719.842 751.074C805.618 751.074 879.068 732.995 909.499 707.35H909.515C909.515 707.35 909.553 707.32 909.606 707.266C913.006 704.393 915.872 701.428 918.144 698.379C934.275 680.972 972.33 637.133 1026.55 557.426C1026.55 557.426 1071.72 485.826 1194.43 484.604C1194.43 484.604 1401.01 490.113 1541.62 306.521V-10.5508H719.834H719.849Z" fill="url(#paint0_linear_504_7128)"/>
<path d="M719.856 756.958H526.631L664.123 899.974C694.562 931.64 745.142 931.64 775.582 899.974L913.074 756.958H719.848H719.856Z" fill="url(#paint1_linear_504_7128)"/>
<path d="M928.999 680.964C894.359 650.811 813.759 629.667 719.848 629.667C625.938 629.667 545.338 650.804 510.698 680.964H492.585V714.013C492.585 760.595 594.332 798.351 719.848 798.351C845.364 798.351 947.111 760.595 947.111 714.013V680.964H928.999Z" fill="url(#paint2_linear_504_7128)"/>
<path d="M719.856 765.303C845.369 765.303 947.119 727.544 947.119 680.965C947.119 634.386 845.369 596.627 719.856 596.627C594.342 596.627 492.593 634.386 492.593 680.965C492.593 727.544 594.342 765.303 719.856 765.303Z" fill="#ED662D"/>
<path d="M719.857 751.075C832.892 751.075 924.524 719.686 924.524 680.965C924.524 642.245 832.892 610.855 719.857 610.855C606.822 610.855 515.189 642.245 515.189 680.965C515.189 719.686 606.822 751.075 719.857 751.075Z" stroke="#D5DDDE" stroke-width="1.21178" stroke-miterlimit="10"/>
<path opacity="0.2" d="M719.849 -9.1958H-101.932V306.521C38.6783 490.106 245.252 484.604 245.252 484.604C367.962 485.826 413.138 557.426 413.138 557.426C467.354 637.134 505.416 680.972 521.539 698.379C523.811 701.428 526.685 704.393 530.077 707.266C530.131 707.32 530.169 707.35 530.169 707.35H530.184C560.616 732.995 634.065 751.074 719.842 751.074C805.618 751.074 879.068 732.995 909.499 707.35H909.515C909.515 707.35 909.553 707.32 909.606 707.266C913.006 704.393 915.872 701.428 918.144 698.379C934.275 680.972 972.33 637.134 1026.55 557.426C1026.55 557.426 1071.72 485.826 1194.43 484.604C1194.43 484.604 1401.01 490.113 1541.62 306.521V-9.1958H719.834H719.849Z" fill="#ED662D"/>
<path d="M719.849 -9.1958H-101.932V306.521C38.6783 490.106 245.252 484.604 245.252 484.604C367.962 485.826 413.138 557.426 413.138 557.426C467.354 637.134 505.416 680.972 521.539 698.379C523.811 701.428 526.685 704.393 530.077 707.266C530.131 707.32 530.169 707.35 530.169 707.35H530.184C560.616 732.995 634.065 751.074 719.842 751.074C805.618 751.074 879.068 732.995 909.499 707.35H909.515C909.515 707.35 909.553 707.32 909.606 707.266C913.006 704.393 915.872 701.428 918.144 698.379C934.275 680.972 972.33 637.134 1026.55 557.426C1026.55 557.426 1071.72 485.826 1194.43 484.604C1194.43 484.604 1401.01 490.113 1541.62 306.521V-9.1958H719.834H719.849Z" fill="url(#paint3_linear_504_7128)"/>
<mask id="mask0_504_7128" style="mask-type:luminance" maskUnits="userSpaceOnUse" x="-102" y="-8" width="1644" height="760">
<path d="M719.849 -7.47949H-101.932V306.521C38.6783 490.106 245.252 484.604 245.252 484.604C367.962 485.827 413.138 557.426 413.138 557.426C467.354 637.134 505.416 680.972 521.539 698.38C523.811 701.428 526.685 704.393 530.077 707.266C530.131 707.32 530.169 707.351 530.169 707.351H530.184C560.616 732.995 634.065 751.075 719.842 751.075C805.618 751.075 879.068 732.995 909.499 707.351H909.515C909.515 707.351 909.553 707.32 909.606 707.266C913.006 704.393 915.872 701.428 918.144 698.38C934.275 680.972 972.33 637.134 1026.55 557.426C1026.55 557.426 1071.72 485.827 1194.43 484.604C1194.43 484.604 1401.01 490.113 1541.62 306.521V-7.47949H719.834H719.849Z" fill="white"/>
</mask>
<g mask="url(#mask0_504_7128)">
<path d="M839.389 696.178C839.389 696.178 789.778 653.348 794.603 588.893C799.429 524.43 746.371 459.111 746.371 459.111H693.321C693.321 459.111 640.271 524.438 645.089 588.893C649.915 653.356 600.303 696.178 600.303 696.178C520.381 768.855 503.847 812.121 503.847 812.121H935.853C935.853 812.121 919.319 768.863 839.397 696.178H839.389Z" fill="url(#paint4_linear_504_7128)"/>
<path d="M805.74 657.375C805.74 657.375 770.094 619.138 773.562 561.583C777.031 504.035 738.907 445.708 738.907 445.708H700.784C700.784 445.708 662.66 504.035 666.129 561.583C669.597 619.13 633.951 657.375 633.951 657.375C576.526 722.266 564.641 760.893 564.641 760.893H875.05C875.05 760.893 863.166 722.266 805.74 657.375Z" fill="url(#paint5_linear_504_7128)"/>
<path d="M721.588 464.209C742.23 464.209 758.964 447.435 758.964 426.743C758.964 406.051 742.23 389.277 721.588 389.277C700.945 389.277 684.211 406.051 684.211 426.743C684.211 447.435 700.945 464.209 721.588 464.209Z" fill="#ED662D"/>
<path d="M420.342 579.693C440.984 579.693 457.718 562.919 457.718 542.227C457.718 521.536 440.984 504.762 420.342 504.762C399.699 504.762 382.965 521.536 382.965 542.227C382.965 562.919 399.699 579.693 420.342 579.693Z" fill="#F6C76A"/>
<path d="M104.07 229.885L162.807 240.736C164.538 229.389 165.429 217.766 165.429 205.937C165.429 79.6937 63.332 -22.6475 -62.6109 -22.6475C-188.554 -22.6475 -290.651 79.6937 -290.651 205.937C-290.651 332.181 -188.554 434.522 -62.6109 434.522C5.14413 434.522 65.9849 404.889 107.752 357.863L68.0507 277.789C55.785 253.046 76.9622 224.88 104.07 229.893V229.885Z" fill="#ED662D"/>
<path d="M231.317 253.398L162.807 240.744C156.015 285.332 136.354 325.671 107.76 357.864L125.644 393.931C136.713 416.252 167.343 419.094 182.307 399.188L251.968 306.552C266.932 286.646 255.772 257.914 231.317 253.398Z" fill="#204F55"/>
<path d="M104.07 229.886C76.9623 224.88 55.785 253.039 68.0508 277.782L107.752 357.856C136.347 325.663 156.007 285.324 162.8 240.736L104.063 229.886H104.07Z" fill="#F6C76A"/>
<path d="M1299.94 377.265L1208.02 442.408C1198.17 449.392 1184.53 447.046 1177.56 437.166L1177.09 436.501C1152.9 498.732 1175.4 571.364 1233.97 608.073C1300.22 649.604 1387.5 629.431 1428.94 563.027C1470.37 496.623 1450.24 409.129 1384 367.598C1359.33 352.132 1331.74 345.232 1304.69 346.08L1305.16 346.737C1312.13 356.61 1309.79 370.281 1299.93 377.265H1299.94Z" fill="#204F55"/>
<path d="M1209.73 249.364L1117.81 314.507C1107.96 321.491 1105.62 335.154 1112.58 345.034L1177.1 436.509C1180.27 428.34 1184.24 420.355 1189.04 412.653C1215.04 370.976 1259.11 347.517 1304.7 346.088L1240.18 254.613C1233.21 244.741 1219.58 242.395 1209.72 249.371L1209.73 249.364Z" fill="#F6C76A"/>
<path d="M1189.04 412.645C1184.24 420.347 1180.27 428.333 1177.1 436.501L1177.57 437.166C1184.54 447.039 1198.17 449.385 1208.03 442.408L1299.95 377.265C1309.79 370.281 1312.14 356.618 1305.18 346.738L1304.71 346.081C1259.12 347.51 1215.05 370.969 1189.05 412.645H1189.04Z" fill="#ED662D"/>
<path d="M1520.98 -52.1914L1719.94 29.4809C1737.02 36.4947 1745.21 56.0903 1738.22 73.2173L1656.74 272.652C1649.74 289.779 1630.19 297.988 1613.11 290.975L1414.15 209.302C1397.06 202.288 1388.87 182.693 1395.87 165.566L1477.35 -33.8691C1484.34 -50.996 1503.89 -59.2052 1520.98 -52.1914Z" fill="#ED662D"/>
<path d="M297.387 400.624C297.387 389.816 288.647 381.055 277.864 381.055C267.082 381.055 258.341 389.816 258.341 400.624V586.318C258.341 597.126 267.082 605.887 277.864 605.887C288.647 605.887 297.387 597.126 297.387 586.318V400.624Z" fill="url(#paint6_linear_504_7128)"/>
<path d="M520.686 28.7944H463.367V188.675H520.686V28.7944Z" stroke="white" stroke-width="1.64868" stroke-miterlimit="10"/>
<path d="M1114.23 188.675C1187.74 188.675 1247.34 128.938 1247.34 55.2491C1247.34 -18.4402 1187.74 -78.1772 1114.23 -78.1772C1040.71 -78.1772 981.119 -18.4402 981.119 55.2491C981.119 128.938 1040.71 188.675 1114.23 188.675Z" fill="url(#paint7_linear_504_7128)"/>
<path d="M1114.23 157.147C1170.37 157.147 1215.88 111.525 1215.88 55.2486C1215.88 -1.02814 1170.37 -46.6494 1114.23 -46.6494C1058.09 -46.6494 1012.57 -1.02814 1012.57 55.2486C1012.57 111.525 1058.09 157.147 1114.23 157.147Z" stroke="#E86548" stroke-width="1.64868" stroke-miterlimit="10"/>
<path d="M817.586 101.503H763.797V155.421H817.586V101.503Z" fill="#ED662D"/>
<path d="M871.403 79.6494L833.369 41.5239L795.334 79.6495L833.369 117.775L871.403 79.6494Z" stroke="white" stroke-width="1.64868" stroke-miterlimit="10"/>
<path d="M995.665 475.419C956.375 475.419 924.518 507.345 924.518 546.736C924.518 586.128 956.367 618.053 995.665 618.053C1034.96 618.053 1066.81 586.128 1066.81 546.736C1066.81 507.345 1034.96 475.419 995.665 475.419ZM995.665 592.248C970.585 592.248 950.254 571.869 950.254 546.728C950.254 521.588 970.585 501.209 995.665 501.209C1020.75 501.209 1041.08 521.588 1041.08 546.728C1041.08 571.869 1020.75 592.248 995.665 592.248Z" fill="#ED662D"/>
</g>
<path d="M580.092 442.041C580.092 377.456 632.326 325.097 696.758 325.097V249.584C590.719 249.584 504.76 335.749 504.76 442.041H580.092Z" fill="url(#paint8_linear_504_7128)"/>
<mask id="mask1_504_7128" style="mask-type:luminance" maskUnits="userSpaceOnUse" x="504" y="249" width="193" height="194">
<path d="M580.093 442.041C580.093 377.456 632.327 325.097 696.759 325.097V249.584C590.72 249.584 504.761 335.749 504.761 442.041H580.093Z" fill="white"/>
</mask>
<g mask="url(#mask1_504_7128)">
<path d="M489.857 259.915L711.586 259.259" stroke="#263036" stroke-width="2.54721" stroke-miterlimit="10"/>
<path d="M489.95 289.479L711.67 288.824" stroke="#263036" stroke-width="2.54721" stroke-miterlimit="10"/>
<path d="M489.95 319.036L711.67 318.381" stroke="#263036" stroke-width="2.54721" stroke-miterlimit="10"/>
<path d="M489.95 348.6L711.67 347.944" stroke="#263036" stroke-width="2.54721" stroke-miterlimit="10"/>
<path d="M489.95 378.165L711.67 377.509" stroke="#263036" stroke-width="2.54721" stroke-miterlimit="10"/>
<path d="M489.95 407.722L711.67 407.066" stroke="#263036" stroke-width="2.54721" stroke-miterlimit="10"/>
<path d="M489.95 437.286L711.67 436.631" stroke="#263036" stroke-width="2.54721" stroke-miterlimit="10"/>
<path d="M521.395 248.171L521.967 442.874" stroke="#263036" stroke-width="2.39059" stroke-miterlimit="10"/>
<path d="M550.88 248.27L551.46 442.973" stroke="#263036" stroke-width="2.39059" stroke-miterlimit="10"/>
<path d="M580.375 248.361L580.946 443.072" stroke="#263036" stroke-width="2.39059" stroke-miterlimit="10"/>
<path d="M609.868 248.46L610.44 443.163" stroke="#263036" stroke-width="2.39059" stroke-miterlimit="10"/>
<path d="M639.355 248.553L639.934 443.263" stroke="#263036" stroke-width="2.39059" stroke-miterlimit="10"/>
<path d="M668.85 248.652L669.421 443.355" stroke="#263036" stroke-width="2.39059" stroke-miterlimit="10"/>
</g>
<path d="M400.124 241.255C376.919 222.687 343.087 226.492 324.555 249.753C306.031 273.013 309.827 306.925 333.032 325.502L366.574 283.382L408.594 317.004C427.118 293.744 423.322 259.832 400.117 241.255H400.124Z" fill="#ED662D"/>
<path d="M333.04 325.501C356.245 344.07 390.076 340.264 408.608 317.004L366.589 283.382L333.047 325.501H333.04Z" fill="#F6C76A"/>
<path d="M582.486 460.357C592.577 460.357 600.758 452.156 600.758 442.041C600.758 431.925 592.577 423.724 582.486 423.724C572.394 423.724 564.213 431.925 564.213 442.041C564.213 452.156 572.394 460.357 582.486 460.357Z" fill="white"/>
<path d="M903.545 265.349C903.545 312.924 865.071 351.491 817.609 351.491V407.105C895.716 407.105 959.027 343.635 959.027 265.349H903.545Z" fill="#F6C76A"/>
<path d="M928.942 209.606L836.313 209.882L836.588 302.732L929.217 302.457L928.942 209.606Z" fill="url(#paint9_linear_504_7128)"/>
<path d="M836.347 221.556L928.969 221.289" stroke="white" stroke-width="1.64868" stroke-miterlimit="10"/>
<path d="M836.432 251.12L929.061 250.846" stroke="white" stroke-width="1.64868" stroke-miterlimit="10"/>
<path d="M836.515 280.685L929.144 280.41" stroke="white" stroke-width="1.64868" stroke-miterlimit="10"/>
<path d="M867.869 209.812L868.144 302.654" stroke="white" stroke-width="1.64868" stroke-miterlimit="10"/>
<path d="M897.363 209.719L897.637 302.57" stroke="white" stroke-width="1.64868" stroke-miterlimit="10"/>
<path d="M720.011 -11.1958H-101.77V306.521C38.8399 490.106 245.413 484.604 245.413 484.604C368.124 485.826 413.299 557.426 413.299 557.426C467.515 637.134 505.578 680.972 521.701 698.379C523.973 701.428 526.847 704.393 530.239 707.266C530.292 707.32 530.331 707.35 530.331 707.35H530.346C560.778 732.995 634.227 751.074 720.003 751.074C805.78 751.074 879.229 732.995 909.661 707.35H909.676C909.676 707.35 909.714 707.32 909.768 707.266C913.168 704.393 916.034 701.428 918.306 698.379C934.436 680.972 972.491 637.134 1026.71 557.426C1026.71 557.426 1071.88 485.826 1194.59 484.604C1194.59 484.604 1401.17 490.113 1541.78 306.521V-11.1958H719.996H720.011Z" fill="url(#paint10_linear_504_7128)"/>
</g>
</g>
<defs>
<linearGradient id="paint0_linear_504_7128" x1="719.849" y1="43.9855" x2="719.849" y2="760.236" gradientUnits="userSpaceOnUse">
<stop stop-color="#D5DDDE" stop-opacity="0"/>
<stop offset="0.24" stop-color="#D5DDDE" stop-opacity="0.01"/>
<stop offset="0.43" stop-color="#D5DDDE" stop-opacity="0.06"/>
<stop offset="0.59" stop-color="#D5DDDE" stop-opacity="0.13"/>
<stop offset="0.74" stop-color="#D5DDDE" stop-opacity="0.23"/>
<stop offset="0.88" stop-color="#D5DDDE" stop-opacity="0.36"/>
<stop offset="1" stop-color="#D5DDDE" stop-opacity="0.5"/>
</linearGradient>
<linearGradient id="paint1_linear_504_7128" x1="644.768" y1="1056.52" x2="736.757" y2="691.277" gradientUnits="userSpaceOnUse">
<stop stop-color="#ED662D"/>
<stop offset="1" stop-color="#263036"/>
</linearGradient>
<linearGradient id="paint2_linear_504_7128" x1="492.593" y1="714.006" x2="947.111" y2="714.006" gradientUnits="userSpaceOnUse">
<stop stop-color="#ED662D"/>
<stop offset="1" stop-color="#204F55"/>
</linearGradient>
<linearGradient id="paint3_linear_504_7128" x1="719.849" y1="43.9857" x2="719.849" y2="760.237" gradientUnits="userSpaceOnUse">
<stop stop-color="#D5DDDE" stop-opacity="0"/>
<stop offset="0.23" stop-color="#D5DCDA" stop-opacity="0.01"/>
<stop offset="0.41" stop-color="#D8D9D1" stop-opacity="0.05"/>
<stop offset="0.57" stop-color="#DCD5C1" stop-opacity="0.12"/>
<stop offset="0.71" stop-color="#E2D0AA" stop-opacity="0.21"/>
<stop offset="0.85" stop-color="#EAC98D" stop-opacity="0.33"/>
<stop offset="0.98" stop-color="#F3C069" stop-opacity="0.48"/>
<stop offset="1" stop-color="#F5BF64" stop-opacity="0.5"/>
</linearGradient>
<linearGradient id="paint4_linear_504_7128" x1="710.298" y1="718.72" x2="665.047" y2="278.208" gradientUnits="userSpaceOnUse">
<stop stop-color="#ED662D"/>
<stop offset="1" stop-color="#204F55"/>
</linearGradient>
<linearGradient id="paint5_linear_504_7128" x1="717.433" y1="453.526" x2="720.068" y2="787.676" gradientUnits="userSpaceOnUse">
<stop stop-color="#263036"/>
<stop offset="1" stop-color="#204F55"/>
</linearGradient>
<linearGradient id="paint6_linear_504_7128" x1="277.864" y1="382.713" x2="277.864" y2="602.579" gradientUnits="userSpaceOnUse">
<stop stop-color="#263036"/>
<stop offset="1" stop-color="#204F55"/>
</linearGradient>
<linearGradient id="paint7_linear_504_7128" x1="981.119" y1="55.2491" x2="1247.34" y2="55.2491" gradientUnits="userSpaceOnUse">
<stop stop-color="#ED662D"/>
<stop offset="1" stop-color="#204F55"/>
</linearGradient>
<linearGradient id="paint8_linear_504_7128" x1="504.767" y1="345.813" x2="696.765" y2="345.813" gradientUnits="userSpaceOnUse">
<stop stop-color="#263036"/>
<stop offset="1" stop-color="#204F55"/>
</linearGradient>
<linearGradient id="paint9_linear_504_7128" x1="836.443" y1="256.295" x2="929.072" y2="256.021" gradientUnits="userSpaceOnUse">
<stop stop-color="#F8FDFF"/>
<stop offset="1" stop-color="#D5DDDE"/>
</linearGradient>
<linearGradient id="paint10_linear_504_7128" x1="720.011" y1="43.9857" x2="720.011" y2="760.236" gradientUnits="userSpaceOnUse">
<stop stop-color="#D5DDDE" stop-opacity="0"/>
<stop offset="0.25" stop-color="#D6D9D7" stop-opacity="0.01"/>
<stop offset="0.44" stop-color="#DACDC4" stop-opacity="0.05"/>
<stop offset="0.61" stop-color="#E0B8A2" stop-opacity="0.11"/>
<stop offset="0.77" stop-color="#EA9B73" stop-opacity="0.2"/>
<stop offset="0.91" stop-color="#F67637" stop-opacity="0.32"/>
<stop offset="1" stop-color="#FF5C0C" stop-opacity="0.4"/>
</linearGradient>
<clipPath id="clip0_504_7128">
<rect width="1440" height="860" fill="white"/>
</clipPath>
<clipPath id="clip1_504_7128">
<rect width="1532" height="924" fill="white" transform="translate(-46)"/>
</clipPath>
</defs>
</svg>
