<svg width="80" height="80" viewBox="0 0 80 80" fill="none" xmlns="http://www.w3.org/2000/svg">
<path d="M20.6172 79.2823C8.01272 83.1406 -3.52835 70.7698 1.00627 58.2616L18.2869 10.5951C22.3712 -0.670982 36.7428 -3.65613 44.8842 5.07056L75.6369 38.034C83.7783 46.7607 80.0032 61.1042 68.6504 64.5793L20.6172 79.2823Z" fill="#204F55"/>
<path fill-rule="evenodd" clip-rule="evenodd" d="M13.6331 23.2911L37.0548 23.2911C48.1004 23.2911 57.0548 32.2454 57.0548 43.2911L57.0548 68.1587L20.7453 79.2776C8.06252 83.1614 -3.55028 70.7087 1.01252 58.1176L13.6331 23.2911Z" fill="#F6C76A"/>
<rect x="24.6313" y="36.3221" width="28" height="3.6" rx="1" transform="rotate(45 24.6313 36.3221)" fill="#204F55"/>
<rect x="21.6311" y="56.3221" width="28" height="3.6" rx="1" transform="rotate(-45 21.6311 56.3221)" fill="#204F55"/>
</svg>
