<svg width="760" height="75" viewBox="0 0 760 75" fill="none" xmlns="http://www.w3.org/2000/svg">
<path d="M8.27256 14.8535H80.0971L71.8181 61.3153H56.0794L56.1873 60.6996H15.8468L15.7388 61.3153H0L8.27892 14.8535H8.27256ZM22.5131 23.2651L17.5038 51.3771H20.1957C19.9608 48.5565 19.637 46.0751 19.2243 43.9518C24.7669 43.6251 29.7571 42.9906 34.1949 42.0483H20.5132L22.3924 31.4882H38.5312L36.7598 41.4327L38.3407 41.0055C38.3089 41.1688 38.3153 41.4578 38.3407 41.8661L39.6359 41.2505C39.2867 39.9439 39.0898 38.455 39.0454 36.8029C38.9946 35.1444 39.1153 33.0902 39.3946 30.6339H22.386L23.5352 24.1886H40.1438L40.2264 23.2651H22.5067H22.5131ZM22.4051 51.3771H34.7473C34.0934 50.3154 33.5791 49.5177 33.1981 48.9837C30.2586 49.8004 26.6588 50.5981 22.4115 51.3771H22.4051ZM30.3348 37.9336L30.7602 35.5402H28.9381L28.5127 37.9336H30.3348ZM57.838 51.3771L62.8472 23.2651H56.3587L57.9332 24.1886H61.3363L60.1871 30.6339H53.0701C53.9716 31.2056 54.9747 31.6956 56.0921 32.1039C57.2032 32.5123 57.8634 32.7572 58.0602 32.8389C57.2095 34.6418 56.0032 36.4008 54.4287 38.1158C55.5334 38.7314 56.9936 39.2591 58.8094 39.7114C58.5618 42.2871 58.238 44.7056 57.838 46.9545C57.5841 48.3868 56.9619 49.3606 55.9714 49.8694C54.981 50.3845 53.9652 50.6359 52.905 50.6359C51.0067 50.6359 49.2925 50.4097 47.7624 49.9636C46.2324 49.5113 44.7975 48.6319 43.4452 47.3252C40.766 49.0465 38.2328 50.3971 35.8393 51.3771H57.8317H57.838ZM51.8066 30.6339H49.5909C49.4893 31.4945 49.4385 32.5185 49.4385 33.7058C49.7686 33.3352 50.5559 32.3175 51.8066 30.6339ZM52.4796 24.1886L53.2795 23.2651H50.9876C50.8987 23.4724 50.8162 23.774 50.7464 24.1886H52.4859H52.4796ZM51.2225 41.439C51.5654 41.8913 51.9717 42.2557 52.4479 42.5446C52.6003 42.5886 52.7018 41.7091 52.759 39.9061C51.8574 40.8045 51.3495 41.3196 51.2225 41.439Z" fill="white"/>
<path d="M161.554 48.2485H155.148C155.618 50.3342 156.177 52.0366 156.812 53.3432C157.447 54.6562 158.558 56.1889 160.145 57.9479C159.199 58.2369 157.98 58.5448 156.501 58.8714C154.793 59.2797 153.041 59.7132 151.25 60.1592C149.454 60.6115 147.993 61.0575 146.857 61.5098C145.638 59.7509 144.806 58.1364 144.362 56.6601C143.911 55.1902 143.562 53.0794 143.314 50.3404L154.126 48.2548H142.813L141.283 56.8486C141.086 57.9542 140.495 58.8211 139.511 59.4556C138.527 60.0901 136.826 60.5487 134.4 60.8377C131.975 61.1267 128.496 61.2648 123.963 61.2648C124.426 58.6452 124.572 56.6601 124.388 55.3095C122.934 57.5585 121.049 59.7069 118.731 61.7548C115.271 60.1592 111.653 58.8714 107.875 57.8851C110.44 56.2078 112.338 54.7253 113.57 53.4375C114.802 52.1497 116.084 50.4221 117.424 48.2485H113.945C113.145 51.5654 111.545 54.0908 109.151 55.8309C106.758 57.571 103.856 58.4003 100.441 58.3186C100.529 54.2667 100.148 51.0943 99.2913 48.8076L97.1264 60.9633H84.4668L92.6378 15.111H116.922L118.084 21.0035C121.258 19.7785 123.43 17.7746 124.617 14.9854H136.718C136.407 15.557 136 16.2103 135.499 16.9515H138.108C138.038 16.1726 138.019 15.5193 138.064 14.9854H147.479C147.543 16.7066 147.847 18.3838 148.4 20.0172L149.187 15.5947L163.256 15.6575L165.123 23.8178C163.383 25.8657 161.332 28.0518 158.97 30.3825C160.97 31.2808 163.491 32.0786 166.532 32.776C164.589 34.4972 162.735 36.9284 160.958 40.0819H163.015L161.561 48.2422L161.554 48.2485ZM99.6215 46.8979C100.288 46.6906 100.866 46.345 101.348 45.855C101.831 45.3651 102.136 44.7495 102.269 44.0145C102.504 42.7078 102.072 41.1122 100.987 39.2276L99.6215 46.8979ZM103.437 25.4763L102.136 32.7822C104.174 29.9176 105.399 27.4865 105.812 25.4763H103.437ZM113.646 40.0819H115.544C114.751 37.7073 113.71 35.8856 112.408 34.6166L111.748 35.6594C112.656 37.3806 113.291 38.8507 113.652 40.0819H113.646ZM112.954 33.7622C114.541 33.4355 116.033 33.0649 117.424 32.6566L117.728 30.9353L116.128 31.4881C116.128 30.5898 116.008 29.792 115.767 29.0947C115.138 30.238 114.205 31.7959 112.96 33.7622H112.954ZM122.541 28.7932C122.071 29.0382 121.182 29.4716 119.862 30.0809L122.998 30.6966C123.677 30.4516 124.452 30.081 125.328 29.591L122.541 28.7932ZM127.607 53.1925C127.937 53.1296 128.16 52.9789 128.28 52.7339C128.401 52.4889 128.534 51.98 128.674 51.201L129.201 48.2548H120.185L127.442 50.1583C126.953 51.1383 126.375 52.1622 125.709 53.2301C126.648 53.2741 127.283 53.2616 127.614 53.1988L127.607 53.1925ZM127.36 37.2676C126.058 38.0466 124.287 38.9889 122.033 40.0882H153.993C151.885 38.9009 150.381 38.0026 149.492 37.3869L149.219 38.9198H127.068L127.366 37.2613L127.36 37.2676ZM128.09 25.1747C127.772 25.4637 127.258 25.8469 126.534 26.3432L129.429 26.9588C130.096 26.4688 130.807 25.8721 131.563 25.181H128.083L128.09 25.1747ZM141.975 29.8422C141.238 28.6549 140.61 27.4488 140.089 26.2238C139.27 27.2854 138.21 28.4916 136.915 29.8422H141.975ZM150.45 24.0126C151.098 24.8292 151.714 25.5077 152.304 26.0354C153.18 25.2564 153.853 24.5842 154.33 24.0126H150.457H150.45Z" fill="white"/>
<path d="M233.538 45.3269C236.763 46.6147 240.833 47.5068 245.759 47.9968C243.169 50.698 239.918 54.5866 236.008 59.6562L234.458 61.679C229.843 60.0457 226.065 57.5768 223.119 54.2851C220.174 50.9933 218.561 47.4628 218.282 43.6999L218.269 43.3293L216.161 55.1771C215.869 56.8168 215.348 58.0229 214.606 58.7956C213.863 59.5746 212.51 60.1273 210.555 60.454C208.6 60.7806 205.565 60.944 201.451 60.944C199.026 60.944 196.029 60.8812 192.467 60.7619L189.947 60.699C189.826 58.1234 189.674 56.1571 189.496 54.8065C186.036 57.0554 181.223 59.3484 175.059 61.679C174.722 61.189 174.132 59.9389 173.275 57.935C172.418 55.931 171.618 54.2223 170.868 52.8088C170.119 51.3954 169.161 50.1201 167.992 48.9705C172.138 48.4805 175.503 47.8963 178.074 47.2241C180.646 46.5519 182.811 45.5594 184.576 44.2464L172.564 44.1836L174.151 35.282L201.902 35.3448L202.143 33.9942H173.744L175.332 25.0926H221.526L221.177 27.0589C220.98 28.4535 220.948 29.8229 221.075 31.1736C224.484 30.3946 227.5 29.5277 230.122 28.5666C232.744 27.6054 236.109 26.2674 240.211 24.5461C240.661 24.3828 241.347 24.0938 242.261 23.6855C243.245 25.5701 244.14 27.1845 244.959 28.5352C245.772 29.8858 246.953 31.6887 248.508 33.9377L242.89 35.7155C239.417 36.8588 236.376 37.7948 233.773 38.511C231.163 39.2271 228.427 39.7925 225.564 40.2008C227.665 42.3304 230.325 44.0391 233.551 45.3269H233.538ZM237.43 25.4695C218.11 24.0812 199.47 23.1955 181.503 22.8311L190.391 14.2373C210.879 14.6896 229.519 15.5691 246.318 16.8757L237.43 25.4695ZM198.918 48.7004C199.337 48.5559 199.591 48.2607 199.667 47.8084L201.133 39.5852C199.756 43.4737 198.124 46.5645 196.238 48.8511C197.603 48.8951 198.492 48.8449 198.918 48.7004Z" fill="white"/>
<path d="M260.798 43.5179L263.42 43.4551L263.045 45.5407C262.563 48.242 262.086 50.6355 261.61 52.7211C261.134 54.8067 260.455 57.1436 259.572 59.7193C259.21 59.6816 258.353 59.5873 257.014 59.4428C255.668 59.2983 254.074 59.2292 252.227 59.2292C253.395 56.528 254.265 54.0843 254.836 51.8919C255.407 49.7058 255.991 46.9542 256.582 43.6373C257.585 43.6373 258.988 43.5996 260.798 43.5117V43.5179ZM276.752 40.9989L273.14 61.252H261.591L264.981 42.2239C262.137 42.5129 259.14 42.7578 255.991 42.9588C256.652 39.2336 256.956 36.2308 256.887 33.9379L261.731 33.8123C262.842 32.914 263.648 32.2355 264.15 31.7895C263.229 30.7278 262.188 29.6222 261.02 28.4726C259.852 27.3293 258.829 26.4058 257.953 25.7085L263.959 17.2969L265.388 18.5847C266.753 17.1524 268.238 15.2929 269.864 13L279.831 15.2113L276.936 18.1575C273.844 21.3111 271.883 23.2711 271.064 24.05L271.857 24.9107C275.495 21.3488 278.981 17.6298 282.314 13.7412L289.85 15.8269L289.894 15.5819H305.95L306.179 14.2941H320.42L320.191 15.5819H336.171L335.276 20.6138H319.296L319.162 21.3487H333.244L332.273 26.8141H289.717L290.688 21.3487H304.928L305.062 20.6138H289.005L289.145 19.816L287.133 21.7822L283.19 25.7085L286.18 25.3379C286.25 28.4914 286.339 30.8032 286.447 32.2731L286.561 34.296L287.767 27.5429H334.596L332.736 37.9773H286.701L286.618 41.1057L278.136 42.0856L278.2 40.8607C277.882 40.8607 277.4 40.9046 276.752 40.9863V40.9989ZM276.708 31.9151L275 33.5108L278.187 33.3851C278.155 32.6878 278.136 31.7518 278.136 30.5645L276.708 31.9151ZM324.368 62.2949C316.458 60.5359 310.23 59.2041 305.697 58.3058C297.887 60.1087 291.145 61.3966 285.469 62.1755C284.352 60.7432 283.349 59.5747 282.453 58.6764L275.216 59.3486C276.003 53.7451 276.866 48.3237 277.8 43.0845L284.657 42.7767C283.736 47.9342 283.215 52.3505 283.082 56.0317C287.85 55.9061 292.7 55.46 297.64 54.6811H284.352L287.196 38.7248H330.857L328.013 54.6811H316.699C320.477 55.0894 325.454 55.7051 331.638 56.5217C329.581 57.9917 327.156 59.9203 324.362 62.2886L324.368 62.2949ZM301.69 32.4051H297.341L297.164 33.3851H301.513L301.69 32.4051ZM314.858 49.957H299.119L298.967 50.8176H314.706L314.858 49.957ZM299.786 46.2129L299.633 47.0736H315.372L315.525 46.2129H299.786ZM316.039 43.3295L316.178 42.5317H300.44L300.3 43.3295H316.039ZM301.995 54.6874L305.716 57.3258C307.842 56.0568 309.449 55.1774 310.534 54.6874H301.989H301.995ZM308.02 32.4051L307.842 33.3851H312.274L312.452 32.4051H308.02ZM318.521 33.3851H322.87L323.048 32.4051H318.699L318.521 33.3851Z" fill="white"/>
<path d="M414.694 52.6016C412.282 57.5518 410.936 60.3787 410.656 61.0698C405.507 60.6614 400.422 59.4741 395.394 57.5078C392.613 58.3245 388.899 59.1663 384.264 60.0269C381.42 60.5986 379.395 61.0321 378.182 61.3148C377.941 58.2429 377.268 54.8883 376.176 51.251L374.468 60.8248H354.774L354.64 61.5597H339.848L342.844 44.7428H377.331L376.563 49.0397C378.258 49.5737 380.137 49.8375 382.194 49.8375C380.531 48.5309 379.001 47.1802 377.617 45.7856L382.512 42.7137H380.137L381.299 36.2055L379.414 36.5762C379.903 33.8373 380.118 31.2994 380.061 28.9624H344.387L345.6 22.1464H382.696L382.531 23.0699C383.915 22.6993 384.937 22.2909 385.597 21.8449C386.62 21.1476 387.515 20.1676 388.296 18.8987C389.077 17.6297 389.559 16.2979 389.756 14.9095H411.825L410.733 21.0471C410.669 21.4177 410.923 21.5999 411.507 21.5999C411.767 21.5999 412.015 21.5622 412.244 21.4743C412.466 21.3926 412.599 21.267 412.624 21.1037C413.082 18.528 413.399 16.4613 413.57 14.9033C417.132 16.4989 419.938 17.4789 421.983 17.8495C421.1 21.9014 420.313 24.9168 419.621 26.9019C418.923 28.887 418.18 30.2376 417.399 30.9538C416.612 31.6699 415.577 32.0908 414.288 32.2102C411.939 32.3735 409.869 32.4552 408.072 32.4552C406.174 32.4552 404.339 32.3735 402.581 32.2102C401.387 32.0846 400.543 31.8835 400.041 31.5946C399.54 31.3119 399.228 30.7465 399.114 29.9047C399 29.0692 399.108 27.7249 399.438 25.8843H397.463C396.892 27.3165 396.143 28.4221 395.21 29.2011C393.153 30.9601 390.918 32.4363 388.486 33.6174L415.716 33.4917L417.183 42.1484C414.593 44.8496 412.421 46.9792 410.669 48.5308C412.885 48.5308 414.999 48.3486 417.018 47.978L414.694 52.5828V52.6016ZM376.176 43.7H343.587L344.724 37.3175H377.312L376.176 43.7ZM346.025 30.0115H378.614L377.49 36.3312H344.901L346.025 30.0115ZM348.704 14.9724H381.293L380.201 21.1099H347.612L348.704 14.9724ZM356.532 50.9432L356.037 53.7072H360.862L361.351 50.9432H356.526H356.532ZM392.41 42.72C393.362 43.8633 394.473 44.7679 395.724 45.4213L396.156 45.6663C397.292 44.8873 398.498 43.9073 399.768 42.72H392.41Z" fill="white"/>
<path d="M441.26 61.5663H425.045L428.042 44.7494H466.408L463.544 60.8313H441.393L441.26 61.5663ZM465.087 43.7066H428.861L429.997 37.3241H466.224L465.087 43.7066ZM498.152 28.1775H504.399L502.266 40.1447H496.019L492.19 61.6292H475.023L478.851 40.1447H467.462L469.455 28.9752H429.432L430.645 22.1593H471.937L470.864 28.1712H480.991L483.213 15.7139H500.38L498.158 28.1712L498.152 28.1775ZM431.299 30.0181H467.525L466.401 36.3378H430.175L431.299 30.0181ZM433.978 14.979H470.204L469.112 21.1165H432.886L433.978 14.979ZM448.51 53.7075L449.005 50.9435H443.152L442.663 53.7075H448.517H448.51Z" fill="white"/>
<path d="M513.344 55.1835C514.601 53.7512 515.833 52.0299 517.033 50.0259C520.106 50.2332 523.966 50.3337 528.607 50.3337C529.178 50.3777 530.022 50.3966 531.127 50.3966C530.492 52.7712 529.819 54.7626 529.115 56.3833C528.404 57.9978 527.458 59.7505 526.283 61.6288C519.979 60.8938 513.833 60.3221 507.84 59.9075C510.252 58.1862 512.093 56.6158 513.35 55.1835H513.344ZM576.35 49.1653L578.966 52.2372C581.156 54.7312 583.023 57.0052 584.553 59.0532C579.397 59.5871 573.849 60.385 567.912 61.4466C567.163 59.7254 566.357 57.9601 565.5 56.1383C564.636 54.3165 563.678 52.5262 562.617 50.7672C567.995 50.1956 572.255 49.6616 575.398 49.1716H511.643L512.823 42.5441H541.222L541.387 41.6206H516.309L517.477 35.0559H542.555L542.733 34.0759H516.709L520.004 15.6006H588.508L585.213 34.0759H559.189L559.011 35.0559H584.089L582.921 41.6206H557.843L557.678 42.5441H586.076L584.896 49.1716H576.35V49.1653ZM545.406 50.1453L545.704 53.3366C546.072 56.2828 546.288 58.7768 546.345 60.8247C541.127 60.8247 535.787 61.0508 530.327 61.4969C531.565 56.3393 532.34 52.7021 532.67 50.5725C535.406 50.6164 539.647 50.472 545.406 50.1453ZM543.939 27.3103L544.847 22.2155H535.121L534.213 27.3103H536.346C535.844 26.2863 535.629 24.8163 535.711 22.8877L543.26 22.7055C542.961 24.9545 542.904 26.4936 543.069 27.3103H543.939ZM560.414 49.8375C561.227 51.1881 562.027 52.8528 562.808 54.838C563.589 56.8231 564.167 58.8208 564.548 60.8247C559.862 60.787 554.599 61.0069 548.764 61.4969C548.625 59.6123 548.402 57.5895 548.104 55.4222C547.806 53.2549 547.507 51.6593 547.215 50.6353C553.005 50.3903 557.405 50.1265 560.408 49.8375H560.414ZM570.122 27.3103L571.03 22.2155H561.303L560.395 27.3103H561.03C561.462 26.368 561.97 24.8351 562.56 22.7055L570.039 22.8877C569.455 24.6906 568.693 26.1606 567.747 27.3103H570.122Z" fill="white"/>
<path d="M668.402 49.3476L665.621 48.977L663.399 61.4342H644.892L645.025 60.6992H616.551L616.417 61.4342H597.91L600.24 48.3613L597.663 48.6063C597.834 47.3373 597.822 46.0182 597.618 44.6487C597.415 43.2792 597.009 41.47 596.412 39.2147H600.209C602.634 39.2147 605.802 39.1771 609.726 39.0891C607.453 38.2285 605.447 37.506 603.707 36.9092C601.967 36.3187 599.91 35.7093 597.542 35.1C602.19 34.1577 606.183 33.2154 609.516 32.2794H598.361L601.25 16.0781H630.042L630.359 14.3003H648.473L648.155 16.0781H676.947L674.058 32.2794H664.484L664.427 33.5044C661.196 35.345 657.494 37.0223 653.323 38.5363C658.32 38.9069 664.922 39.1268 673.138 39.2084C670.719 43.298 669.144 46.6777 668.408 49.335L668.402 49.3476ZM613.452 38.976C617.281 38.8127 621.02 38.5237 624.677 38.1154L622.252 36.6391C620.017 37.3364 617.084 38.1154 613.452 38.9697V38.976ZM615.973 26.1481L615.23 30.3194C617.103 29.5844 618.963 28.5982 620.817 27.3732H639.883C639.622 27.6622 639.172 28.0893 638.543 28.6609L658.25 28.5981L658.688 26.1419H615.973V26.1481ZM618.189 51.4332L617.903 53.0289H646.378L646.663 51.4332H618.189ZM645.26 45.5407C642.067 44.8057 639.127 44.0079 636.429 43.1473C633.14 43.8446 628.645 44.6424 622.95 45.5407H645.254H645.26ZM630.607 34.1263C632.55 34.7797 634.727 35.4142 637.153 36.0298C639.14 35.5398 641.254 34.9053 643.502 34.1263H630.607Z" fill="white"/>
<path d="M755.904 36.1244C754.508 36.4322 752.831 36.8531 750.895 37.3808C751.981 44.9129 753.212 52.1749 754.603 59.1731C752.577 59.2987 750.197 59.55 747.467 59.9395C744.737 60.3289 742.032 60.7498 739.372 61.1959L736.528 61.6231L736.172 58.3062L706.948 61.6231L706.815 60.153C706.555 57.4518 706.269 55.2091 705.958 53.4313C705.64 51.6535 705.095 49.9825 704.32 48.4309C707.145 48.2675 709.361 48.123 710.961 48.0036L716.287 37.6321C714.535 37.0981 712.777 36.6269 710.999 36.2186L712.783 37.7515L705.666 47.9408L705.114 43.9518L704.904 42.4817L701.501 61.5728H685.445L687.819 48.2549C685.896 51.6535 683.68 54.6186 681.172 57.1565C681.604 50.8933 681.229 45.2899 680.055 40.3396C681.997 39.479 683.826 38.4173 685.527 37.1483C687.229 35.8794 688.918 34.3842 690.6 32.6693L690.721 31.9971H684.791L686.956 19.8415H692.886L693.851 14.4389H709.907L708.942 19.8415H713.132L711.139 31.0108C713.424 28.5545 715.202 26.0292 716.484 23.4285C717.767 20.8277 718.954 17.6301 720.052 13.8232L736.242 14.8661L735.404 16.8889C733.061 22.9447 731.137 27.5055 729.639 30.5774L736.331 31.193L734.204 35.1193L739.15 34.4471C738.546 31.6202 738.153 28.8687 737.969 26.1925C737.785 23.5101 737.626 19.7409 737.493 14.8661L754.05 13.8232C753.765 18.6918 754 22.6935 754.761 25.8219C755.523 28.9504 757.269 32.173 759.999 35.4899C758.66 35.6155 757.288 35.8291 755.892 36.1369L755.904 36.1244ZM706.771 31.9782L706.713 32.2861L708.351 33.756L710.174 31.9782H706.771ZM727.931 46.8289L735.226 46.2761C734.883 42.2682 734.464 38.7251 733.956 35.6595L727.931 46.8289Z" fill="white"/>
</svg>
