<svg width="250" height="60" viewBox="0 0 250 60" fill="none" xmlns="http://www.w3.org/2000/svg">
<path d="M0 37.7501C0.544719 36.8416 1.05442 35.6646 1.52715 34.223C1.99989 32.7795 2.3559 31.3769 2.59714 30.0131L3.10684 27.128C3.33834 25.8168 3.46869 24.4317 3.49982 22.9707C3.529 21.5116 3.44338 20.3171 3.23911 19.3911H21.2071C24.5999 19.3911 27.1464 20.0156 28.8506 21.2665C30.5529 22.5174 31.2065 24.2702 30.8077 26.525C30.3953 28.8692 29.2747 30.7271 27.4519 32.0986C25.6271 33.4721 23.1408 34.1569 19.9931 34.1569C17.8064 34.1569 16.0322 33.7114 14.6685 32.8184C13.3047 31.9255 12.5363 30.7816 12.3632 29.3828H12.048L11.9177 30.1182C11.3652 33.2484 11.3185 35.793 11.7776 37.7501H0ZM16.8201 28.9373C18.0613 28.9373 19.1352 28.7544 20.0379 28.3868C20.9405 28.0191 21.4405 27.5736 21.5319 27.0483C21.707 26.0522 20.5884 25.5523 18.1761 25.5523C16.1645 25.5523 14.3144 25.7351 12.6239 26.1028L12.546 26.5483C12.3009 28.1397 13.725 28.9354 16.8201 28.9354V28.9373Z" fill="white"/>
<path d="M29.2456 37.751C30.3973 35.7744 31.1716 33.6675 31.5665 31.4303L32.2882 27.3391C32.5003 26.1329 32.5976 25.2322 32.5801 24.6369C35.5935 25.4948 38.7412 25.4948 42.0232 24.6369C41.8286 25.1446 41.6185 26.0454 41.3889 27.3391L40.6672 31.4303C40.2723 33.6695 40.3034 35.7764 40.7586 37.751H29.2437H29.2456ZM41.0932 23.6661C40.0797 24.1563 38.8307 24.3995 37.3444 24.3995C35.8581 24.3995 34.6947 24.1544 33.8543 23.6661C33.0139 23.1758 32.6656 22.5202 32.8116 21.6993C32.9555 20.8783 33.5314 20.2227 34.5352 19.7325C35.539 19.2422 36.7939 18.999 38.2977 18.999C39.8015 18.999 40.9687 19.2442 41.8014 19.7325C42.6321 20.2227 42.9764 20.8783 42.8324 21.6993C42.6865 22.5222 42.1087 23.1778 41.0952 23.6661H41.0932Z" fill="white"/>
<path d="M53.684 38.0924C49.941 38.0924 47.0832 37.4718 45.1066 36.2307C43.1301 34.9895 42.3325 33.2931 42.7118 31.1414C43.0912 28.9898 44.488 27.2953 46.9003 26.0522C49.3126 24.811 52.3922 24.1904 56.1333 24.1904C57.7947 24.1904 59.4639 24.2955 61.1408 24.5056C62.8178 24.7157 63.9734 24.9511 64.6095 25.2137L62.7555 31.1161C61.1525 30.1901 59.1526 29.7252 56.7578 29.7252C54.9563 29.7252 53.6393 29.8302 52.8066 30.0403C51.974 30.2504 51.511 30.6181 51.4195 31.1414C51.2522 32.085 53.0401 32.5577 56.7831 32.5577C59.6681 32.5577 62.1349 32.0071 64.1835 30.906L63.0551 37.3065C60.4269 37.8318 57.3025 38.0924 53.684 38.0924Z" fill="white"/>
<path d="M85.597 38.145C84.6009 38.145 83.7449 38.0302 83.0348 37.8045C82.3228 37.5769 81.7684 37.2754 81.3715 36.8999C80.9746 36.5245 80.64 36.1179 80.3677 35.6801C80.0953 35.2424 79.8541 34.8008 79.644 34.3553C79.4339 33.9098 79.2043 33.4993 78.9572 33.1219C78.7082 32.7464 78.3678 32.4449 77.9359 32.2173C77.504 31.9897 76.9729 31.8768 76.3426 31.8768C76.185 31.8768 75.9982 31.8943 75.7823 31.9294L75.7414 32.1648C75.436 33.8962 75.5099 35.758 75.9632 37.752H64.4482C65.5999 35.7755 66.3742 33.6686 66.7691 31.4313L67.7827 25.6865C68.1776 23.4493 68.1446 21.3502 67.6854 19.3911H79.2004C78.0507 21.3502 77.2783 23.4473 76.8834 25.6865L76.4262 28.2836H76.7939C77.6188 27.0775 78.8483 26.1028 80.4844 25.3597C82.1185 24.6165 83.8714 24.2449 85.7429 24.2449C90.1317 24.2449 92.118 25.4258 91.7017 27.7856C91.5013 28.9217 90.5773 29.7972 88.9314 30.4081C87.2836 31.0209 85.1417 31.3263 82.4998 31.3263H82.3948L82.3306 31.694C83.3772 31.9041 84.6262 32.0091 86.0775 32.0091C87.3887 32.0091 88.5462 31.7912 89.5501 31.3535C90.5539 30.9158 91.2679 30.3925 91.69 29.7797L90.4975 36.5478C90.0889 36.9855 89.41 37.361 88.4626 37.6762C87.5151 37.9913 86.56 38.1489 85.5989 38.1489L85.597 38.145ZM75.9613 30.9061H80.7879C82.1341 30.9061 82.8792 30.4956 83.0251 29.6727C83.1049 29.2174 82.9259 28.8731 82.4862 28.6357C82.0466 28.4004 81.4435 28.2817 80.6731 28.2817C78.3464 28.2817 76.7764 29.1571 75.9613 30.9041V30.9061Z" fill="white"/>
<path d="M99.8921 38.1452C97.4798 38.1452 95.7386 37.6025 94.6706 36.5189C93.6026 35.4353 93.2213 34.0268 93.5267 32.2954L93.7679 30.9316C94.1628 28.6944 94.1298 26.5953 93.6706 24.6362H105.186C104.036 26.5953 103.264 28.6924 102.869 30.9316L102.738 31.665C102.649 32.1728 102.799 32.6319 103.192 33.0424C103.583 33.4529 104.145 33.6591 104.88 33.6591C105.616 33.6591 106.32 33.4315 107.045 32.9763C107.773 32.521 108.201 31.9277 108.331 31.1923L108.378 30.9297C108.773 28.6924 108.74 26.5933 108.281 24.6343H119.796C118.646 26.5933 117.874 28.6905 117.479 30.9297L117.385 31.4549C116.99 33.6941 117.024 35.7913 117.483 37.7503H106.361C106.635 37.3827 106.915 36.8593 107.203 36.1765C107.489 35.4936 107.672 34.9256 107.754 34.4723L107.763 34.4198H107.396C106.6 35.661 105.526 36.5928 104.176 37.2134C102.824 37.834 101.398 38.1452 99.8941 38.1452H99.8921Z" fill="white"/>
<path d="M118.288 42.998C119.451 41.0565 120.311 38.5119 120.867 35.3661L121.418 32.2457C121.971 29.1155 122.006 26.5806 121.527 24.6391H132.964C132.616 25.0243 132.264 25.5612 131.906 26.2518C131.548 26.9425 131.33 27.5066 131.254 27.9443L131.231 28.0747H131.624C132.47 26.851 133.645 25.9075 135.153 25.2421C136.66 24.5768 138.384 24.2461 140.326 24.2461C143.001 24.2461 145.02 24.8667 146.384 26.1079C147.747 27.349 148.24 29.0455 147.86 31.1971C147.481 33.3487 146.39 35.0451 144.59 36.2863C142.789 37.5275 140.549 38.1481 137.874 38.1481C135.933 38.1481 134.326 37.8154 133.054 37.152C131.781 36.4867 130.937 35.5432 130.523 34.3195H130.13L129.945 35.3681C129.39 38.5158 129.351 41.0604 129.832 43H118.292L118.288 42.998ZM132.026 32.769C132.711 33.1542 133.657 33.3468 134.863 33.3468C136.069 33.3468 137.079 33.1542 137.89 32.769C138.701 32.3838 139.164 31.8605 139.283 31.1951C139.4 30.5318 139.121 30.0065 138.446 29.6213C137.771 29.2361 136.83 29.0435 135.624 29.0435C134.417 29.0435 133.404 29.2361 132.585 29.6213C131.766 30.0065 131.297 30.5298 131.18 31.1951C131.063 31.8605 131.346 32.3838 132.03 32.769H132.026Z" fill="white"/>
<path d="M158.173 38.1456C152.595 38.1456 150.095 36.5017 150.675 33.214L151.928 26.1054H148.465L148.724 24.6366H152.186L152.733 21.5414L162.094 19.915L161.262 24.6366H167.242L166.983 26.1054H161.003L160.254 30.3542C160.137 31.0195 160.276 31.5428 160.672 31.928C161.067 32.3132 161.694 32.5058 162.552 32.5058C164.231 32.5058 165.647 31.963 166.799 30.8794L165.758 36.7819C164.806 37.2196 163.627 37.5562 162.223 37.7915C160.818 38.0269 159.468 38.1456 158.174 38.1456H158.173Z" fill="white"/>
<path d="M166.74 37.7501C167.907 35.791 168.689 33.6841 169.088 31.4294L170.102 25.6845C170.499 23.4279 170.458 21.3307 169.979 19.3892H181.519C180.346 21.3832 179.564 23.4804 179.177 25.6845L178.774 27.9665H179.142C179.942 26.7078 181.016 25.7721 182.366 25.1593C183.716 24.5465 185.15 24.241 186.671 24.241C189.083 24.241 190.82 24.7838 191.879 25.8674C192.937 26.951 193.314 28.3595 193.009 30.0909L192.774 31.4294C192.377 33.6861 192.416 35.793 192.892 37.7501H181.352C182.531 35.721 183.313 33.6141 183.7 31.4294L183.825 30.7213C183.914 30.2135 183.759 29.7544 183.36 29.3439C182.959 28.9334 182.393 28.7272 181.659 28.7272C180.926 28.7272 180.243 28.9509 179.508 29.3964C178.774 29.8419 178.341 30.4333 178.212 31.1667L178.165 31.4294C177.78 33.616 177.819 35.7229 178.284 37.7501H166.744H166.74Z" fill="white"/>
<path d="M214.15 36.2708C211.754 37.5217 208.839 38.1461 205.414 38.1461C201.988 38.1461 199.299 37.5217 197.35 36.2708C195.402 35.0199 194.615 33.3371 194.988 31.2224C195.364 29.0882 196.747 27.3918 199.138 26.1331C201.529 24.8745 204.437 24.2441 207.865 24.2441C211.293 24.2441 213.983 24.8745 215.938 26.1331C217.893 27.3918 218.683 29.0882 218.306 31.2224C217.932 33.339 216.547 35.0218 214.15 36.2708ZM206.203 33.66C207.164 33.66 207.976 33.446 208.637 33.018C209.299 32.59 209.697 31.9908 209.834 31.2204C209.97 30.452 209.785 29.8392 209.279 29.384C208.773 28.9287 208.04 28.7011 207.079 28.7011C206.118 28.7011 205.33 28.9287 204.663 29.384C203.997 29.8392 203.597 30.45 203.46 31.2204C203.328 31.9733 203.515 32.5667 204.025 33.0044C204.532 33.4421 205.26 33.66 206.203 33.66Z" fill="white"/>
<path d="M217.967 37.7512C219.146 35.7221 219.928 33.6153 220.315 31.4305L220.403 30.9325C220.792 28.7283 220.751 26.6312 220.28 24.6371H231.402C231.128 25.0048 230.848 25.5281 230.56 26.211C230.274 26.8938 230.091 27.4521 230.015 27.8899L230.001 27.9677H230.369C231.169 26.709 232.243 25.7732 233.593 25.1604C234.943 24.5476 236.369 24.2422 237.873 24.2422C240.285 24.2422 242.026 24.785 243.094 25.8686C244.162 26.9522 244.543 28.3607 244.238 30.0921L244.003 31.4305C243.608 33.6697 243.639 35.7766 244.094 37.7512H232.579C233.731 35.7747 234.505 33.6678 234.9 31.4305L235.025 30.7224C235.114 30.2147 234.962 29.7555 234.573 29.345C234.182 28.9345 233.62 28.7283 232.885 28.7283C232.149 28.7283 231.468 28.9521 230.733 29.3976C229.999 29.8431 229.566 30.4345 229.437 31.1679L229.391 31.4305C228.994 33.6872 229.033 35.7941 229.509 37.7512H217.969H217.967Z" fill="white"/>
</svg>
