<svg width="760" height="75" viewBox="0 0 760 75" fill="none" xmlns="http://www.w3.org/2000/svg">
<path d="M0 58.3262C1.6943 55.5004 3.27967 51.8395 4.75009 47.3556C6.2205 42.8657 7.32785 38.5029 8.07818 34.2611L9.66356 25.2873C10.3836 21.2088 10.7891 16.9005 10.8859 12.3561C10.9767 7.81779 10.7104 4.10248 10.075 1.22217H65.9629C76.516 1.22217 84.4368 3.1645 89.7375 7.05535C95.0322 10.9462 97.0654 16.3982 95.8249 23.4114C94.5421 30.703 91.0567 36.4818 85.3868 40.7478C79.7109 45.0199 71.9776 47.1498 62.1869 47.1498C55.3855 47.1498 49.8669 45.7641 45.6251 42.9867C41.3833 40.2092 38.9931 36.6513 38.4546 32.3005H37.4743L37.0689 34.5878C35.3504 44.324 35.2052 52.2389 36.6332 58.3262H0ZM52.3176 30.9148C56.1782 30.9148 59.5185 30.346 62.3262 29.2024C65.1339 28.0587 66.6889 26.673 66.9733 25.0392C67.5179 21.9411 64.0386 20.3859 56.5352 20.3859C50.2784 20.3859 44.5239 20.9548 39.2655 22.0984L39.0234 23.4841C38.261 28.4338 42.6904 30.9087 52.3176 30.9087V30.9148Z" fill="white"/>
<path d="M90.966 58.3264C94.5483 52.1785 96.9566 45.6252 98.185 38.6664L100.43 25.941C101.089 22.1893 101.392 19.3877 101.338 17.536C110.711 20.2046 120.501 20.2046 130.71 17.536C130.104 19.1154 129.451 21.917 128.737 25.941L126.492 38.6664C125.264 45.6312 125.36 52.1846 126.776 58.3264H90.96H90.966ZM127.817 14.5165C124.665 16.0414 120.78 16.7978 116.157 16.7978C111.534 16.7978 107.915 16.0354 105.301 14.5165C102.687 12.9917 101.604 10.9525 102.058 8.39891C102.505 5.84535 104.297 3.80614 107.419 2.28127C110.541 0.756397 114.444 0 119.122 0C123.799 0 127.43 0.762448 130.02 2.28127C132.604 3.80614 133.675 5.84535 133.227 8.39891C132.773 10.9585 130.976 12.9977 127.823 14.5165H127.817Z" fill="white"/>
<path d="M166.98 59.3915C155.338 59.3915 146.449 57.4611 140.301 53.6006C134.153 49.74 131.672 44.4634 132.852 37.7709C134.032 31.0784 138.377 25.808 145.88 21.9413C153.383 18.0807 162.962 16.1504 174.598 16.1504C179.766 16.1504 184.958 16.4771 190.174 17.1307C195.39 17.7842 198.984 18.5164 200.963 19.3333L195.196 37.6922C190.21 34.8119 183.99 33.3658 176.541 33.3658C170.937 33.3658 166.841 33.6925 164.251 34.346C161.661 34.9996 160.221 36.1432 159.937 37.7709C159.416 40.7057 164.977 42.1761 176.619 42.1761C185.593 42.1761 193.266 40.4637 199.638 37.0387L196.128 56.9468C187.953 58.5806 178.235 59.3915 166.98 59.3915Z" fill="white"/>
<path d="M266.241 59.5546C263.143 59.5546 260.481 59.1975 258.272 58.4956C256.057 57.7876 254.333 56.8498 253.098 55.6819C251.864 54.5141 250.823 53.2494 249.976 51.8879C249.129 50.5264 248.379 49.1528 247.725 47.7671C247.072 46.3814 246.357 45.1046 245.589 43.9307C244.814 42.7628 243.756 41.8249 242.412 41.1169C241.069 40.4089 239.417 40.058 237.456 40.058C236.966 40.058 236.385 40.1125 235.714 40.2214L235.587 40.9535C234.637 46.339 234.866 52.1299 236.276 58.3323H200.46C204.042 52.1844 206.451 45.631 207.679 38.6723L210.832 20.8035C212.06 13.8447 211.957 7.31561 210.529 1.22217H246.345C242.769 7.31561 240.367 13.8387 239.139 20.8035L237.717 28.8816H238.86C241.426 25.13 245.25 22.0984 250.339 19.7868C255.422 17.4753 260.874 16.3196 266.695 16.3196C280.346 16.3196 286.525 19.9926 285.23 27.3325C284.606 30.8664 281.732 33.5894 276.613 35.4895C271.488 37.3955 264.825 38.3455 256.608 38.3455H256.281L256.082 39.4892C259.337 40.1427 263.222 40.4695 267.736 40.4695C271.814 40.4695 275.415 39.7918 278.537 38.4303C281.659 37.0688 283.88 35.441 285.193 33.5349L281.484 54.5866C280.213 55.9481 278.101 57.116 275.155 58.0963C272.208 59.0766 269.237 59.5667 266.247 59.5667L266.241 59.5546ZM236.27 37.0385H251.283C255.47 37.0385 257.788 35.7617 258.242 33.2021C258.49 31.7862 257.933 30.7151 256.566 29.9769C255.198 29.2447 253.322 28.8756 250.926 28.8756C243.689 28.8756 238.806 31.5986 236.27 37.0324V37.0385Z" fill="white"/>
<path d="M310.705 59.555C303.202 59.555 297.786 57.8668 294.464 54.4963C291.142 51.1259 289.956 46.7449 290.906 41.3594L291.656 37.1176C292.884 30.1589 292.782 23.6298 291.354 17.5363H327.17C323.594 23.6298 321.191 30.1528 319.963 37.1176L319.558 39.3989C319.279 40.9782 319.745 42.4063 320.968 43.683C322.184 44.9598 323.933 45.6013 326.22 45.6013C328.507 45.6013 330.698 44.8933 332.955 43.4773C335.218 42.0614 336.549 40.2158 336.954 37.9285L337.1 37.1116C338.328 30.1528 338.225 23.6237 336.797 17.5303H372.613C369.037 23.6237 366.635 30.1468 365.407 37.1116L365.116 38.7454C363.888 45.7102 363.991 52.2333 365.419 58.3267H330.825C331.678 57.183 332.549 55.5553 333.445 53.4313C334.334 51.3074 334.903 49.5405 335.157 48.1306L335.188 47.9673H334.044C331.569 51.8278 328.229 54.7263 324.029 56.6566C319.824 58.5869 315.388 59.555 310.711 59.555H310.705Z" fill="white"/>
<path d="M367.925 74.6462C371.543 68.6072 374.218 60.6924 375.948 50.9078L377.661 41.2019C379.379 31.4657 379.488 23.5811 378 17.5422H413.574C412.491 18.7403 411.396 20.4104 410.282 22.5585C409.169 24.7067 408.491 26.4614 408.255 27.8229L408.182 28.2284H409.405C412.037 24.4223 415.692 21.4874 420.381 19.418C425.071 17.3485 430.432 16.3198 436.471 16.3198C444.791 16.3198 451.073 18.2501 455.314 22.1107C459.556 25.9713 461.087 31.2478 459.907 37.9403C458.727 44.6328 455.333 49.9094 449.735 53.77C444.132 57.6306 437.167 59.5608 428.847 59.5608C422.808 59.5608 417.81 58.5261 413.852 56.4627C409.895 54.3932 407.269 51.4585 405.98 47.6523H404.758L404.183 50.9139C402.458 60.7045 402.337 68.6193 403.832 74.6523H367.937L367.925 74.6462ZM410.657 42.8297C412.787 44.0278 415.728 44.6268 419.48 44.6268C423.232 44.6268 426.372 44.0278 428.895 42.8297C431.419 41.6315 432.859 40.0037 433.228 37.9343C433.591 35.8709 432.726 34.2371 430.626 33.039C428.526 31.8409 425.597 31.2418 421.846 31.2418C418.094 31.2418 414.941 31.8409 412.394 33.039C409.846 34.2371 408.388 35.8648 408.025 37.9343C407.662 40.0037 408.539 41.6315 410.669 42.8297H410.657Z" fill="white"/>
<path d="M491.984 59.5548C474.635 59.5548 466.86 54.4416 468.663 44.2153L472.56 22.1047H461.789L462.594 17.5361H473.365L475.065 7.90879L504.183 2.8501L501.593 17.5361H520.194L519.389 22.1047H500.788L498.458 35.3202C498.095 37.3897 498.525 39.0174 499.759 40.2155C500.988 41.4137 502.936 42.0127 505.605 42.0127C510.827 42.0127 515.232 40.3244 518.814 36.954L515.577 55.313C512.618 56.6745 508.951 57.7213 504.582 58.4535C500.213 59.1857 496.014 59.5548 491.99 59.5548H491.984Z" fill="white"/>
<path d="M518.632 58.3264C522.262 52.233 524.695 45.6797 525.935 38.6665L529.088 20.7976C530.323 13.7783 530.195 7.25529 528.707 1.21631H564.602C560.953 7.41867 558.521 13.9417 557.316 20.7976L556.064 27.8955H557.207C559.694 23.9805 563.035 21.0699 567.234 19.1638C571.434 17.2577 575.893 16.3077 580.625 16.3077C588.128 16.3077 593.532 17.9959 596.824 21.3664C600.116 24.7368 601.29 29.1179 600.34 34.5033L599.607 38.6665C598.373 45.6857 598.494 52.239 599.976 58.3264H564.082C567.748 52.0151 570.181 45.4618 571.385 38.6665L571.772 36.4639C572.051 34.8845 571.567 33.4564 570.326 32.1797C569.08 30.9029 567.319 30.2615 565.038 30.2615C562.756 30.2615 560.632 30.9573 558.345 32.343C556.064 33.7287 554.714 35.5683 554.315 37.8495L554.17 38.6665C552.972 45.4679 553.093 52.0212 554.539 58.3264H518.644H518.632Z" fill="white"/>
<path d="M666.097 53.7218C658.642 57.6127 649.578 59.555 638.922 59.555C628.266 59.555 619.903 57.6127 613.84 53.7218C607.783 49.831 605.332 44.5967 606.494 38.0192C607.662 31.3812 611.964 26.1046 619.401 22.1895C626.838 18.2745 635.884 16.314 646.546 16.314C657.208 16.314 665.577 18.2745 671.658 22.1895C677.74 26.1046 680.196 31.3812 679.022 38.0192C677.861 44.6028 673.552 49.837 666.097 53.7218ZM641.379 45.6012C644.368 45.6012 646.891 44.9356 648.949 43.6043C651.006 42.2731 652.246 40.4094 652.67 38.0131C653.094 35.623 652.519 33.7169 650.945 32.301C649.372 30.885 647.091 30.177 644.102 30.177C641.112 30.177 638.662 30.885 636.586 32.301C634.517 33.7169 633.27 35.6169 632.847 38.0131C632.435 40.3549 633.016 42.2005 634.601 43.562C636.181 44.9235 638.444 45.6012 641.379 45.6012Z" fill="white"/>
<path d="M677.969 58.3269C681.636 52.0156 684.069 45.4623 685.273 38.6669L685.545 37.1178C686.755 30.2619 686.628 23.7389 685.164 17.5365H719.758C718.905 18.6801 718.033 20.3079 717.138 22.4318C716.248 24.5557 715.68 26.2924 715.444 27.6539L715.401 27.8959H716.545C719.032 23.9809 722.372 21.0703 726.571 19.1642C730.771 17.2581 735.206 16.3081 739.884 16.3081C747.387 16.3081 752.803 17.9963 756.125 21.3668C759.447 24.7373 760.633 29.1183 759.683 34.5038L758.951 38.6669C757.722 45.6317 757.819 52.185 759.235 58.3269H723.419C727.001 52.179 729.41 45.6256 730.638 38.6669L731.025 36.4643C731.303 34.885 730.831 33.4569 729.621 32.1801C728.405 30.9033 726.656 30.2619 724.369 30.2619C722.082 30.2619 719.964 30.9578 717.676 32.3435C715.395 33.7292 714.046 35.5687 713.646 37.8499L713.501 38.6669C712.267 45.6862 712.388 52.2395 713.87 58.3269H677.975H677.969Z" fill="white"/>
</svg>
