<svg width="270" height="80" viewBox="0 0 270 80" fill="none" xmlns="http://www.w3.org/2000/svg">
<mask id="mask0_504_7934" style="mask-type:luminance" maskUnits="userSpaceOnUse" x="0" y="0" width="270" height="80">
<path d="M269.108 0H0V80H269.108V0Z" fill="white"/>
</mask>
<g mask="url(#mask0_504_7934)">
<path d="M72.0293 48.8282V31.9849H78.9625C80.457 31.9849 81.7321 32.2221 82.7997 32.6966C83.8672 33.1711 84.6856 33.8531 85.2668 34.7546C85.8421 35.6501 86.1327 36.7295 86.1327 37.9809C86.1327 39.2323 85.8421 40.2761 85.2668 41.1717C84.6915 42.0613 83.8672 42.7493 82.7997 43.2415C81.7321 43.7338 80.4511 43.9769 78.9625 43.9769H73.7909L75.1608 42.5357V48.8401H72.0352L72.0293 48.8282ZM75.1548 42.8619L73.7849 41.3199H78.8142C80.1961 41.3199 81.2339 41.0293 81.9278 40.4421C82.6277 39.855 82.9717 39.0366 82.9717 37.975C82.9717 36.9134 82.6217 36.0949 81.9278 35.5078C81.228 34.9206 80.1901 34.63 78.8142 34.63H73.7849L75.1548 33.088V42.856V42.8619Z" fill="white"/>
<path d="M92.2176 35.9819H89.2344V48.8338H92.2176V35.9819Z" fill="white"/>
<path d="M90.7293 33.9302C91.7909 33.9302 92.6568 33.4854 92.6568 32.062C92.6568 30.6386 91.7968 30.1938 90.7293 30.1938C89.6617 30.1938 88.8018 30.6386 88.8018 32.062C88.8018 33.4854 89.6617 33.9302 90.7293 33.9302Z" fill="white"/>
<path d="M100.041 38.8821C100.634 38.5559 101.298 38.3898 102.04 38.3898C102.68 38.3898 103.279 38.5381 103.831 38.8347C104.382 39.1312 104.851 39.576 105.236 40.1691L107.52 38.8228C107.039 37.8442 106.316 37.0969 105.355 36.5869C104.394 36.0709 103.291 35.8159 102.057 35.8159C100.711 35.8159 99.513 36.1006 98.4573 36.6699C97.4076 37.2393 96.5833 38.0162 95.9902 38.9948C95.3971 39.9734 95.1006 41.1121 95.1006 42.4109C95.1006 43.7098 95.3971 44.8307 95.9902 45.8152C96.5833 46.7997 97.4076 47.5825 98.4573 48.1519C99.5071 48.7212 100.705 49.0059 102.057 49.0059C103.291 49.0059 104.394 48.7449 105.355 48.223C106.316 47.7011 107.039 46.9598 107.52 45.999L105.236 44.6528C104.851 45.2636 104.382 45.7143 103.831 46.0109C103.279 46.3074 102.68 46.4557 102.04 46.4557C101.304 46.4557 100.634 46.2896 100.041 45.9634C99.4477 45.6372 98.9793 45.1628 98.6472 44.5578C98.3091 43.947 98.143 43.2353 98.143 42.4169C98.143 41.5984 98.3091 40.8867 98.6472 40.2877C98.9852 39.6887 99.4477 39.2201 100.041 38.8939V38.8821Z" fill="white"/>
<path d="M122.874 35.9817H119.268L113.035 41.7463V30.9761H110.052V48.8276H113.035V45.4412L115.247 43.3298L119.749 48.8276H123.378L117.489 41.3668L122.874 35.9817Z" fill="white"/>
<path d="M134.522 42.4758C134.522 43.3239 134.38 44.0415 134.089 44.6168C133.799 45.1921 133.389 45.6251 132.862 45.9157C132.334 46.2063 131.717 46.3486 131.011 46.3486C130.062 46.3486 129.327 46.0639 128.799 45.4946C128.271 44.9252 128.004 44.0712 128.004 42.9325V35.9757H124.974V43.3121C124.974 44.5931 125.211 45.6607 125.685 46.5028C126.16 47.345 126.812 47.9677 127.648 48.3769C128.485 48.7861 129.446 48.9878 130.537 48.9878C131.533 48.9878 132.446 48.7624 133.283 48.3117C133.834 48.0151 134.303 47.6297 134.676 47.1671V48.8158H137.541V35.9639H134.534V42.458L134.522 42.4758Z" fill="white"/>
<path d="M151.947 36.6285C150.968 36.0829 149.853 35.8101 148.602 35.8101C147.529 35.8101 146.556 36.0473 145.69 36.5217C145.18 36.8005 144.741 37.1682 144.368 37.6189V35.9821H141.503V53.5015H144.486V47.2683C144.848 47.6893 145.263 48.0333 145.737 48.2943C146.586 48.7687 147.54 49.006 148.602 49.006C149.853 49.006 150.968 48.7332 151.947 48.1875C152.925 47.6419 153.703 46.8769 154.272 45.8923C154.841 44.9078 155.126 43.7454 155.126 42.4169C155.126 41.0884 154.841 39.9438 154.272 38.9533C153.703 37.9569 152.925 37.186 151.947 36.6404V36.6285ZM151.561 44.5223C151.223 45.1332 150.773 45.6076 150.203 45.9398C149.634 46.2778 148.982 46.4439 148.24 46.4439C147.499 46.4439 146.894 46.2778 146.313 45.9398C145.737 45.6017 145.281 45.1272 144.943 44.5223C144.605 43.9114 144.439 43.2057 144.439 42.4051C144.439 41.6044 144.605 40.8749 144.943 40.2759C145.281 39.6769 145.737 39.2083 146.313 38.8822C146.888 38.556 147.534 38.3899 148.24 38.3899C148.946 38.3899 149.634 38.556 150.203 38.8822C150.773 39.2083 151.223 39.6769 151.561 40.2759C151.9 40.8749 152.066 41.5866 152.066 42.4051C152.066 43.2235 151.9 43.9114 151.561 44.5223Z" fill="white"/>
<path d="M177.437 33.0345C176.049 32.3347 174.46 31.9907 172.663 31.9907H165.273V48.8341H172.663C174.46 48.8341 176.049 48.4842 177.437 47.7903C178.825 47.0904 179.905 46.1119 180.676 44.8427C181.447 43.5735 181.832 42.0968 181.832 40.4124C181.832 38.7281 181.447 37.2514 180.676 35.9822C179.905 34.713 178.825 33.7344 177.437 33.0345ZM177.918 43.443C177.396 44.3089 176.672 44.9851 175.753 45.4655C174.828 45.9458 173.737 46.189 172.467 46.189H168.399V34.6359H172.467C173.737 34.6359 174.828 34.879 175.753 35.3594C176.678 35.8398 177.396 36.5041 177.918 37.3581C178.44 38.2062 178.701 39.2263 178.701 40.4124C178.701 41.5986 178.44 42.5772 177.918 43.443Z" fill="white"/>
<path d="M193.788 36.6404C192.81 36.0888 191.695 35.8101 190.443 35.8101C189.192 35.8101 188.018 36.0947 187.015 36.6641C186.013 37.2334 185.224 38.0104 184.655 39.0008C184.085 39.9853 183.801 41.124 183.801 42.4051C183.801 43.6861 184.091 44.8248 184.679 45.8093C185.266 46.7938 186.09 47.5766 187.158 48.146C188.225 48.7153 189.471 49.0001 190.9 49.0001C192.021 49.0001 193.023 48.8221 193.895 48.4722C194.767 48.1223 195.502 47.6063 196.095 46.9302L194.458 45.0561C194.008 45.5187 193.498 45.8746 192.916 46.1177C192.335 46.3609 191.689 46.4795 190.965 46.4795C190.117 46.4795 189.37 46.3135 188.729 45.9873C188.089 45.6611 187.596 45.1984 187.246 44.6053C187.027 44.2317 186.879 43.8225 186.802 43.3777H196.884C196.902 43.2472 196.914 43.099 196.92 42.9329C196.925 42.7668 196.931 42.6245 196.931 42.5118C196.931 41.1477 196.653 39.9675 196.089 38.9771C195.526 37.9807 194.755 37.2097 193.776 36.6523L193.788 36.6404ZM186.784 41.3672C186.849 40.8927 186.986 40.4597 187.193 40.0683C187.496 39.493 187.934 39.0482 188.504 38.7339C189.073 38.4196 189.72 38.2654 190.443 38.2654C191.167 38.2654 191.825 38.4196 192.371 38.7339C192.916 39.0482 193.343 39.4871 193.658 40.0565C193.877 40.4539 194.013 40.8927 194.073 41.3672H186.79H186.784Z" fill="white"/>
<path d="M208.045 42.227C207.571 41.9779 207.055 41.7882 206.492 41.6518C205.928 41.5154 205.365 41.4027 204.795 41.3137C204.226 41.2248 203.71 41.1299 203.241 41.0231C202.779 40.9164 202.399 40.7681 202.109 40.5783C201.818 40.3885 201.676 40.0979 201.676 39.7124C201.676 39.2972 201.901 38.9533 202.352 38.6923C202.803 38.4254 203.473 38.2949 204.374 38.2949C204.985 38.2949 205.602 38.3662 206.225 38.4966C206.847 38.633 207.458 38.8762 208.051 39.232L209.232 36.9487C208.638 36.5988 207.897 36.32 207.008 36.1184C206.118 35.9167 205.246 35.8159 204.398 35.8159C203.242 35.8159 202.245 35.982 201.403 36.32C200.561 36.6581 199.908 37.1266 199.44 37.7256C198.977 38.3246 198.74 39.0304 198.74 39.8311C198.74 40.5843 198.882 41.1891 199.173 41.634C199.464 42.0847 199.837 42.4406 200.306 42.7075C200.768 42.9743 201.29 43.1701 201.86 43.3065C202.429 43.4429 202.998 43.5496 203.568 43.6326C204.137 43.7156 204.653 43.7987 205.122 43.8995C205.584 43.9944 205.964 44.1368 206.254 44.3206C206.545 44.5045 206.687 44.7713 206.687 45.1272C206.687 45.5601 206.474 45.9041 206.047 46.1473C205.62 46.3963 204.944 46.5209 204.012 46.5209C203.194 46.5209 202.382 46.4023 201.581 46.171C200.78 45.9397 200.086 45.6372 199.511 45.2695L198.354 47.5528C198.948 47.9561 199.736 48.2942 200.715 48.573C201.693 48.8517 202.726 48.994 203.817 48.994C205.021 48.994 206.053 48.828 206.907 48.5018C207.767 48.1756 208.431 47.713 208.905 47.1318C209.38 46.5446 209.617 45.8448 209.617 45.0264C209.617 44.3028 209.475 43.7216 209.184 43.2708C208.893 42.8201 208.514 42.4702 208.039 42.2211L208.045 42.227Z" fill="white"/>
<path d="M215.228 35.9814H212.245V48.8334H215.228V35.9814Z" fill="white"/>
<path d="M213.733 33.9238C214.798 33.9238 215.661 33.0875 215.661 32.0557C215.661 31.0239 214.798 30.1875 213.733 30.1875C212.669 30.1875 211.806 31.0239 211.806 32.0557C211.806 33.0875 212.669 33.9238 213.733 33.9238Z" fill="white"/>
<path d="M229.064 37.6723C228.643 37.1682 228.145 36.7708 227.558 36.4743C226.686 36.0354 225.702 35.8101 224.61 35.8101C223.377 35.8101 222.268 36.065 221.289 36.581C220.311 37.097 219.534 37.8206 218.964 38.7576C218.395 39.6947 218.11 40.7919 218.11 42.0433C218.11 43.2947 218.395 44.3622 218.964 45.2933C219.534 46.2245 220.311 46.948 221.289 47.4699C222.268 47.9919 223.377 48.2528 224.61 48.2528C225.702 48.2528 226.686 48.0274 227.558 47.5767C228.074 47.3098 228.525 46.9599 228.916 46.5328V47.2149C228.916 48.5315 228.59 49.5101 227.932 50.1625C227.273 50.8148 226.247 51.1351 224.854 51.1351C223.94 51.1351 223.057 50.9928 222.209 50.7022C221.361 50.4116 220.655 50.0379 220.091 49.5694L218.745 51.8053C219.48 52.4162 220.411 52.8787 221.526 53.1871C222.641 53.5015 223.798 53.6557 225.002 53.6557C227.25 53.6557 228.964 53.1041 230.15 52.0069C231.336 50.9097 231.929 49.1958 231.929 46.8709V35.9702H229.064V37.6605V37.6723ZM228.477 43.9352C228.151 44.4867 227.689 44.9197 227.096 45.234C226.502 45.5484 225.826 45.7025 225.073 45.7025C224.32 45.7025 223.644 45.5484 223.039 45.234C222.44 44.9197 221.971 44.4867 221.645 43.9352C221.319 43.3836 221.153 42.755 221.153 42.0433C221.153 41.3316 221.319 40.6614 221.645 40.1158C221.971 39.5702 222.44 39.1431 223.039 38.8407C223.638 38.5382 224.32 38.384 225.073 38.384C225.826 38.384 226.502 38.5382 227.096 38.8407C227.689 39.1431 228.151 39.5702 228.477 40.1158C228.804 40.6614 228.97 41.3019 228.97 42.0433C228.97 42.7846 228.804 43.3777 228.477 43.9352Z" fill="white"/>
<path d="M247.817 38.2653C247.343 37.4291 246.708 36.8123 245.914 36.4149C245.119 36.0116 244.2 35.8159 243.156 35.8159C242.035 35.8159 241.044 36.0413 240.184 36.492C239.609 36.7945 239.135 37.174 238.755 37.6366V35.982H235.891V48.8339H238.874V42.3398C238.874 41.4739 239.022 40.7562 239.319 40.1869C239.615 39.6175 240.036 39.1905 240.582 38.8999C241.128 38.6093 241.75 38.4669 242.456 38.4669C243.435 38.4669 244.188 38.7457 244.716 39.3091C245.244 39.8726 245.51 40.7206 245.51 41.8593V48.8398H248.517V41.4738C248.517 40.175 248.28 39.1075 247.806 38.2713L247.817 38.2653Z" fill="white"/>
<path d="M41.1599 20.0459C29.7966 20.0459 20.5801 24.8083 20.5801 40.0325C20.5801 55.2568 29.7966 60.0191 41.1599 60.0191C52.5233 60.0191 61.7397 55.2568 61.7397 40.0325C61.7397 24.8083 52.5233 20.0459 41.1599 20.0459Z" fill="#E86548"/>
<path d="M31.0534 46.1884C30.8874 46.1884 30.7153 46.1528 30.5493 46.0816C29.9206 45.8029 29.6359 45.0675 29.9146 44.433C32.9097 37.66 37.0375 35.6198 37.2154 35.5368C37.8382 35.2403 38.5855 35.5012 38.882 36.124C39.1785 36.7408 38.9176 37.488 38.3008 37.7845C38.2296 37.8201 34.7779 39.6112 32.198 45.4412C31.9905 45.9097 31.5338 46.1825 31.0534 46.1825V46.1884Z" fill="white"/>
<path d="M54.042 45.1328C53.4726 47.1137 52.5533 48.8099 51.4442 49.9189C50.5368 50.8264 48.9712 51.7337 47.5419 51.3067C44.9383 50.5357 45.3593 47.6712 45.6677 45.5835C46.1422 42.3809 45.8694 41.6989 44.8612 41.3786C44.8315 41.3668 44.8018 41.3608 44.7721 41.3549C44.6654 41.3312 44.4104 41.2956 44.0249 41.3371C43.5326 41.4379 42.9515 41.7701 42.3109 42.5529C40.8342 44.3618 40.1996 47.2856 40.9824 48.6912C41.1189 48.9403 41.5458 49.6995 43.2538 49.4741C43.9359 49.3852 44.5646 49.8655 44.6536 50.5476C44.7425 51.2296 44.2621 51.8583 43.5801 51.9472C43.2479 51.9887 42.9396 52.0124 42.649 52.0124C40.342 52.0124 39.2566 50.7314 38.794 49.9071C38.2128 48.8692 38.0527 47.5822 38.195 46.2715C37.4003 47.5229 36.5699 49.0886 35.7337 51.0457C35.532 51.5202 35.0695 51.8049 34.5831 51.8049C34.4171 51.8049 34.251 51.7752 34.0908 51.704C33.4562 51.4312 33.1657 50.6959 33.4326 50.0672C35.7575 44.6406 38.4143 41.1236 41.3263 39.6113C42.2871 39.1131 43.1413 38.9055 43.8292 38.8462C44.3215 38.781 44.8197 38.8106 45.3119 38.9292C45.5076 38.9707 45.638 39.0182 45.6796 39.0359C48.983 40.145 48.473 43.6442 48.129 45.9631C47.9926 46.8942 47.8621 47.7779 47.9333 48.3947C47.9867 48.8573 48.0994 48.8929 48.2417 48.9344C48.4255 48.9819 49.0779 48.7624 49.665 48.1693C51.2129 46.6214 52.5651 42.9206 52.0136 39.1012C51.6874 36.8653 50.5606 33.7991 47.0199 31.8835C43.0048 29.7128 38.9541 30.2228 34.9745 33.4077C31.8727 35.8867 30.0046 39.0715 29.9868 39.1071C29.6428 39.7061 28.8777 39.9078 28.2787 39.5579C27.6797 39.2139 27.4781 38.4488 27.8281 37.8498C27.9111 37.7015 29.9512 34.2262 33.4148 31.4565C38.1831 27.643 43.3013 27.0321 48.212 29.6891C52.6601 32.097 54.0835 35.946 54.4868 38.7453C54.7893 40.8389 54.6351 43.0511 54.0301 45.1506L54.042 45.1328Z" fill="white"/>
</g>
</svg>
