<svg width="200" height="201" viewBox="0 0 200 201" fill="none" xmlns="http://www.w3.org/2000/svg">
<path d="M99.7911 173.75C138.106 173.75 169.166 142.69 169.166 104.375C169.166 66.0602 138.106 35 99.7911 35C61.4763 35 30.416 66.0602 30.416 104.375C30.416 142.69 61.4763 173.75 99.7911 173.75Z" fill="url(#paint0_linear_1017_5633)"/>
<path d="M99.7911 157.5C129.131 157.5 152.916 133.715 152.916 104.375C152.916 75.0349 129.131 51.25 99.7911 51.25C70.4509 51.25 46.666 75.0349 46.666 104.375C46.666 133.715 70.4509 157.5 99.7911 157.5Z" stroke="#E86548" stroke-width="2.06085" stroke-miterlimit="10"/>
<ellipse cx="99.1762" cy="105.711" rx="38.2114" ry="38.2113" fill="#ED662D"/>
<path d="M49.583 181.728C49.583 154.113 71.9688 131.728 99.583 131.728C127.197 131.728 149.583 154.113 149.583 181.728V200.02H49.583V181.728Z" fill="#F6C76A"/>
<path fill-rule="evenodd" clip-rule="evenodd" d="M121.46 136.756C115.187 141.266 107.491 143.923 99.1754 143.923C91.0062 143.923 83.4357 141.359 77.2246 136.993C83.9524 133.624 91.5459 131.728 99.5822 131.728C107.428 131.728 114.852 133.535 121.46 136.756Z" fill="#204F55"/>
<defs>
<linearGradient id="paint0_linear_1017_5633" x1="30.416" y1="104.375" x2="169.166" y2="104.375" gradientUnits="userSpaceOnUse">
<stop stop-color="#ED662D"/>
<stop offset="1" stop-color="#204F55"/>
</linearGradient>
</defs>
</svg>
