<svg width="221" height="73" viewBox="0 0 221 73" fill="none" xmlns="http://www.w3.org/2000/svg">
<path d="M78.0744 42.9316H0V72.4463H78.0744V42.9316Z" fill="#F6C76A"/>
<path d="M19.4718 64.8076V68.1966H2.95415V65.5159L11.8522 57.3907C14.0262 55.3906 14.4161 54.1267 14.4161 52.9253C14.4161 50.953 13.0078 49.8141 10.2561 49.8141C8.08215 49.8141 6.25486 50.5225 5.00538 52.0642L2.09473 49.9114C3.82089 47.6613 6.92656 46.3418 10.61 46.3418C15.4779 46.3418 18.6124 48.7099 18.6124 52.5295C18.6124 54.6198 18.0057 56.5296 14.9001 59.3352L8.91265 64.8145H19.4791L19.4718 64.8076Z" fill="#13181B"/>
<path d="M20.9741 57.4181C20.9741 50.3346 25.0114 46.3345 30.3199 46.3345C35.6284 46.3345 39.7018 50.3346 39.7018 57.4181C39.7018 64.5017 35.6717 68.5017 30.3199 68.5017C24.9681 68.5017 20.9741 64.5017 20.9741 57.4181ZM35.5056 57.4181C35.5056 52.2166 33.3894 49.8137 30.3199 49.8137C27.2504 49.8137 25.1631 52.2166 25.1631 57.4181C25.1631 62.6197 27.2793 65.0225 30.3199 65.0225C33.3605 65.0225 35.5056 62.6197 35.5056 57.4181Z" fill="#13181B"/>
<path d="M57.7873 64.8076V68.1966H41.2696V65.5159L50.1676 57.3907C52.3415 55.3906 52.7316 54.1267 52.7316 52.9253C52.7316 50.953 51.3232 49.8141 48.5714 49.8141C46.3975 49.8141 44.5702 50.5225 43.3207 52.0642L40.4102 49.9114C42.1363 47.6613 45.2419 46.3418 48.9253 46.3418C53.7932 46.3418 56.9278 48.7099 56.9278 52.5295C56.9278 54.6198 56.3211 56.5296 53.2155 59.3352L47.2281 64.8145H57.7945L57.7873 64.8076Z" fill="#13181B"/>
<path d="M75.3007 61.7307C75.3007 65.3628 72.4478 68.5017 66.4315 68.5017C63.2609 68.5017 60.0903 67.5781 58.0103 66.0086L59.8014 62.8974C61.4048 64.1891 63.8315 65.0225 66.3666 65.0225C69.3422 65.0225 71.1045 63.7586 71.1045 61.7585C71.1045 59.7585 69.6311 58.557 66.2365 58.557H64.1854V55.8208L69.2772 50.0012H59.0936V46.647H74.3617V49.3276L68.9161 55.5431C73.1412 56.0639 75.2862 58.5015 75.2862 61.7307H75.3007Z" fill="#13181B"/>
<path d="M220.941 0H0V29.5147H220.941V0Z" fill="#F6C76A"/>
<path d="M23.6029 11.3749C23.6029 16.1181 19.9555 19.0418 14.062 19.0418H9.00631V25.2572H4.84619V3.70801H14.0692C19.9627 3.70801 23.6101 6.60391 23.6101 11.3749H23.6029ZM19.4066 11.3749C19.4066 8.66646 17.5144 7.097 13.8671 7.097H8.99908V15.6528H13.8671C17.5144 15.6528 19.4066 14.0833 19.4066 11.3749Z" fill="#13181B"/>
<path d="M26.9614 3.71533H31.1215V25.2645H26.9614V3.71533Z" fill="#13181B"/>
<path d="M34.7686 14.4865C34.7686 8.05576 39.8892 3.40283 46.7722 3.40283C50.4195 3.40283 53.5613 4.66676 55.6414 7.0071L52.9547 9.43773C51.3224 7.74323 49.3073 6.91682 46.9672 6.91682C42.3232 6.91682 38.9648 10.0558 38.9648 14.4865C38.9648 18.9172 42.3232 22.0561 46.9672 22.0561C49.3073 22.0561 51.3224 21.2228 52.9547 19.5005L55.6414 21.9658C53.5613 24.3062 50.4195 25.5701 46.7433 25.5701C39.8892 25.5701 34.7686 20.9242 34.7686 14.4865Z" fill="#13181B"/>
<path d="M66.5617 16.2431L63.0083 19.7501V25.2572H58.8481V3.70801H63.0083V14.757L74.0874 3.70801H78.7604L69.3496 13.3402L79.3382 25.2503H74.4702L66.5617 16.2292V16.2431Z" fill="#13181B"/>
<path d="M80.8696 15.8681V3.70801H85.0298V15.7153C85.0298 20.146 87.1098 22.0557 90.7283 22.0557C94.3467 22.0557 96.3978 20.146 96.3978 15.7153V3.70801H100.493V15.8681C100.493 22.146 96.8095 25.5628 90.6993 25.5628C84.5892 25.5628 80.8696 22.146 80.8696 15.8681Z" fill="#13181B"/>
<path d="M124.276 11.3749C124.276 16.1181 120.629 19.0418 114.735 19.0418H109.68V25.2572H105.52V3.70801H114.743C120.636 3.70801 124.283 6.60391 124.283 11.3749H124.276ZM120.08 11.3749C120.08 8.66646 118.188 7.097 114.54 7.097H109.672V15.6528H114.54C118.188 15.6528 120.08 14.0833 120.08 11.3749Z" fill="#13181B"/>
<path d="M131.542 7.097H124.117V3.70801H143.134V7.097H135.709V25.2572H131.549V7.097H131.542Z" fill="#13181B"/>
<path d="M165.379 3.71533V25.2645H161.219V16.0282H149.627V25.2645H145.467V3.71533H149.627V12.6114H161.219V3.71533H165.379Z" fill="#13181B"/>
<path d="M168.997 14.4865C168.997 8.11131 174.118 3.40283 181.066 3.40283C188.014 3.40283 193.134 8.08353 193.134 14.4865C193.134 20.8894 188.014 25.5701 181.066 25.5701C174.118 25.5701 168.997 20.8617 168.997 14.4865ZM188.945 14.4865C188.945 10.0836 185.587 6.91682 181.073 6.91682C176.559 6.91682 173.201 10.0905 173.201 14.4865C173.201 18.8824 176.559 22.0561 181.073 22.0561C185.587 22.0561 188.945 18.8824 188.945 14.4865Z" fill="#13181B"/>
<path d="M216.666 3.71533V25.2645H213.242L200.885 10.6739V25.2645H196.753V3.71533H200.177L212.534 18.306V3.71533H216.666Z" fill="#13181B"/>
</svg>
